<?xml version="1.0" standalone="no"?><!DOCTYPE svg PUBLIC "-//W3C//DTD SVG 1.1//EN" "http://www.w3.org/Graphics/SVG/1.1/DTD/svg11.dtd"><svg t="1764856562738" class="icon" viewBox="0 0 1024 1024" version="1.1" xmlns="http://www.w3.org/2000/svg" p-id="2549" xmlns:xlink="http://www.w3.org/1999/xlink" width="128" height="128"><path d="M277.333333 21.333333h576c23.466667 0 42.666667 19.2 42.666667 42.666667v896c0 23.466667-19.2 42.666667-42.666667 42.666667H277.333333c-83.2 0-149.333333-66.133333-149.333333-149.333334V170.666667c0-83.2 66.133333-149.333333 149.333333-149.333334z m533.333334 682.666667V106.666667H277.333333c-36.266667 0-64 27.733333-64 64v548.266666c19.2-10.666667 40.533333-14.933333 64-14.933333h533.333334z m0 213.333333v-128H277.333333c-36.266667 0-64 27.733333-64 64s27.733333 64 64 64h533.333334z" fill="#4a90e2" p-id="2550"></path><path d="M405.333333 384h64v106.666667c0 23.466667 19.2 42.666667 42.666667 42.666666s42.666667-19.2 42.666667-42.666666v-106.666667h64c23.466667 0 42.666667-19.2 42.666666-42.666667s-19.2-42.666667-42.666666-42.666666h-64v-64c0-23.466667-19.2-42.666667-42.666667-42.666667s-42.666667 19.2-42.666667 42.666667v64h-64c-23.466667 0-42.666667 19.2-42.666666 42.666666s19.2 42.666667 42.666666 42.666667" fill="#4a90e2" p-id="2551"></path></svg>