<?xml version="1.0" standalone="no"?><!DOCTYPE svg PUBLIC "-//W3C//DTD SVG 1.1//EN" "http://www.w3.org/Graphics/SVG/1.1/DTD/svg11.dtd"><svg t="1764160256027" class="icon" viewBox="0 0 1024 1024" version="1.1" xmlns="http://www.w3.org/2000/svg" p-id="3478" xmlns:xlink="http://www.w3.org/1999/xlink" width="128" height="128"><path d="M0 0m0 0l1024 0q0 0 0 0l0 1024q0 0 0 0l-1024 0q0 0 0 0l0-1024q0 0 0 0Z" fill="#FFFFFF" fill-opacity="0" p-id="3479"></path><path d="M490.688 106.688a362.688 362.688 0 0 1 299.776 566.784l144.64 144.704c8.32 8.32 8.32 21.824 0 30.208l-36.16 36.16a21.312 21.312 0 0 1-30.144 0l-140.928-140.8a362.688 362.688 0 1 1-237.184-636.992v-0.064z m0 89.6a273.088 273.088 0 1 0 0 546.112 273.088 273.088 0 0 0 0-546.112z" fill="#86909C" p-id="3480"></path></svg>